<svg xmlns="http://www.w3.org/2000/svg" xmlns:xlink="http://www.w3.org/1999/xlink" width="350" zoomAndPan="magnify" viewBox="0 0 262.5 52.499999" height="70" preserveAspectRatio="xMidYMid meet" version="1.0"><defs><g/><clipPath id="f92e59f47b"><path d="M 11.269531 9.84375 L 47.636719 9.84375 L 47.636719 43.320312 L 11.269531 43.320312 Z M 11.269531 9.84375 " clip-rule="nonzero"/></clipPath></defs><path fill="#fdfbfa" d="M 23.1875 20.667969 C 23.691406 20.667969 24.097656 20.257812 24.097656 19.75 C 24.097656 18.28125 25.277344 17.09375 26.730469 17.09375 C 26.761719 17.09375 26.796875 17.09375 26.832031 17.09375 C 28.285156 17.152344 29.414062 18.390625 29.355469 19.855469 C 29.3125 20.886719 28.6875 21.800781 27.746094 22.203125 C 26.582031 22.6875 25.824219 23.835938 25.820312 25.105469 L 25.820312 26.113281 C 25.820312 26.617188 26.226562 27.027344 26.730469 27.027344 C 27.230469 27.027344 27.636719 26.617188 27.636719 26.113281 L 27.636719 25.105469 C 27.640625 24.570312 27.960938 24.09375 28.449219 23.894531 C 30.714844 22.933594 31.78125 20.300781 30.828125 18.011719 C 30.160156 16.402344 28.628906 15.328125 26.902344 15.257812 C 24.449219 15.164062 22.382812 17.097656 22.285156 19.574219 C 22.285156 19.636719 22.28125 19.695312 22.28125 19.75 C 22.28125 20.257812 22.6875 20.667969 23.1875 20.667969 " fill-opacity="1" fill-rule="nonzero"/><path fill="#fdfbfa" d="M 26.730469 28.253906 C 26.226562 28.253906 25.820312 28.667969 25.820312 29.175781 L 25.820312 29.878906 C 25.820312 30.386719 26.226562 30.796875 26.730469 30.796875 C 27.230469 30.796875 27.636719 30.386719 27.636719 29.878906 L 27.636719 29.175781 C 27.636719 28.667969 27.230469 28.253906 26.730469 28.253906 " fill-opacity="1" fill-rule="nonzero"/><g clip-path="url(#f92e59f47b)"><path fill="#fdfbfa" d="M 41.742188 35.382812 C 41.691406 35.425781 41.640625 35.464844 41.585938 35.503906 L 41.5625 35.523438 C 41.328125 35.703125 41.199219 35.992188 41.207031 36.289062 L 41.390625 40.996094 L 35.4375 38.457031 C 35.277344 38.386719 35.101562 38.363281 34.929688 38.394531 C 33.921875 38.574219 32.902344 38.664062 31.882812 38.664062 L 31.871094 38.664062 C 28.550781 38.664062 25.40625 37.738281 22.898438 36.042969 L 23.929688 35.601562 C 24.953125 35.769531 25.984375 35.851562 27.019531 35.851562 L 27.035156 35.851562 C 31.171875 35.851562 35.078125 34.546875 38.035156 32.175781 C 41.105469 29.707031 42.796875 26.398438 42.796875 22.847656 C 42.796875 21.972656 42.691406 21.101562 42.488281 20.253906 C 44.640625 22.269531 45.816406 24.808594 45.816406 27.492188 C 45.816406 30.472656 44.371094 33.269531 41.742188 35.382812 Z M 17.339844 30.878906 L 17.320312 30.863281 C 17.265625 30.820312 17.210938 30.777344 17.160156 30.734375 C 14.53125 28.628906 13.082031 25.824219 13.082031 22.847656 C 13.082031 19.871094 14.53125 17.070312 17.15625 14.960938 C 19.796875 12.84375 23.300781 11.679688 27.035156 11.679688 C 30.761719 11.679688 34.273438 12.84375 36.90625 14.960938 C 39.535156 17.070312 40.980469 19.871094 40.980469 22.847656 C 40.980469 25.824219 39.535156 28.628906 36.90625 30.734375 C 34.273438 32.851562 30.765625 34.019531 27.035156 34.019531 L 27.019531 34.019531 C 26 34.019531 24.980469 33.925781 23.976562 33.75 C 23.800781 33.71875 23.628906 33.742188 23.464844 33.808594 L 17.511719 36.351562 L 17.695312 31.640625 C 17.707031 31.34375 17.574219 31.0625 17.339844 30.878906 Z M 42.875 18.167969 C 42.304688 17.714844 41.710938 17.300781 41.085938 16.933594 C 40.269531 15.628906 39.238281 14.476562 38.035156 13.523438 C 35.078125 11.152344 31.171875 9.84375 27.035156 9.84375 C 22.890625 9.84375 18.984375 11.152344 16.03125 13.523438 C 12.960938 15.988281 11.269531 19.296875 11.269531 22.847656 C 11.269531 26.332031 12.898438 29.585938 15.863281 32.035156 L 15.644531 37.722656 C 15.625 38.230469 16.011719 38.652344 16.515625 38.671875 C 16.648438 38.679688 16.78125 38.65625 16.902344 38.601562 L 20.945312 36.875 C 23.890625 39.210938 27.765625 40.496094 31.871094 40.496094 L 31.882812 40.496094 C 32.917969 40.496094 33.953125 40.414062 34.976562 40.246094 L 42 43.25 C 42.464844 43.449219 42.996094 43.230469 43.191406 42.761719 C 43.242188 42.636719 43.265625 42.5 43.261719 42.367188 L 43.042969 36.683594 C 46.003906 34.234375 47.636719 30.976562 47.636719 27.492188 C 47.636719 23.945312 45.945312 20.632812 42.875 18.167969 " fill-opacity="1" fill-rule="nonzero"/></g><g fill="#ffffff" fill-opacity="1"><g transform="translate(60.621748, 41.959667)"><g><path d="M 25.125 -4.671875 L 25.125 0 L 3.8125 0 L 3.8125 -29.546875 L 24.703125 -29.546875 L 24.703125 -24.921875 L 9.71875 -24.921875 L 9.71875 -17.125 L 23.625 -17.125 L 23.625 -12.453125 L 9.71875 -12.453125 L 9.71875 -4.671875 Z M 25.125 -4.671875 "/></g></g></g><g fill="#ffffff" fill-opacity="1"><g transform="translate(86.992711, 41.959667)"><g><path d="M 24.28125 -22.78125 L 15.453125 0 L 8.859375 0 L 0 -22.78125 L 6.546875 -22.78125 L 12.28125 -4.453125 L 17.890625 -22.78125 Z M 24.28125 -22.78125 "/></g></g></g><g fill="#ffffff" fill-opacity="1"><g transform="translate(111.223171, 41.959667)"><g><path d="M 23.375 -11.859375 C 23.375 -11.035156 23.347656 -10.363281 23.296875 -9.84375 L 7.109375 -9.84375 C 7.453125 -5.644531 9.207031 -3.546875 12.375 -3.546875 C 13.65625 -3.546875 14.71875 -3.890625 15.5625 -4.578125 C 16.40625 -5.265625 16.925781 -6.207031 17.125 -7.40625 L 23.03125 -7.40625 C 22.457031 -4.8125 21.207031 -2.828125 19.28125 -1.453125 C 17.351562 -0.0859375 15.007812 0.59375 12.25 0.59375 C 8.96875 0.59375 6.296875 -0.421875 4.234375 -2.453125 C 2.179688 -4.492188 1.15625 -7.441406 1.15625 -11.296875 C 1.15625 -14.835938 2.21875 -17.734375 4.34375 -19.984375 C 6.46875 -22.242188 9.257812 -23.375 12.71875 -23.375 C 16.050781 -23.375 18.660156 -22.273438 20.546875 -20.078125 C 22.429688 -17.878906 23.375 -15.140625 23.375 -11.859375 Z M 12.453125 -19.21875 C 9.515625 -19.21875 7.789062 -17.378906 7.28125 -13.703125 L 17.296875 -13.703125 C 16.898438 -17.378906 15.285156 -19.21875 12.453125 -19.21875 Z M 12.453125 -19.21875 "/></g></g></g><g fill="#ffffff" fill-opacity="1"><g transform="translate(135.967357, 41.959667)"><g><path d="M 23.9375 -17 C 24.050781 -15.96875 24.109375 -14.582031 24.109375 -12.84375 L 24.109375 0 L 18.203125 0 L 18.203125 -12.03125 C 18.203125 -13.375 18.171875 -14.429688 18.109375 -15.203125 C 17.910156 -17.878906 16.457031 -19.21875 13.75 -19.21875 C 12.207031 -19.21875 10.960938 -18.5 10.015625 -17.0625 C 9.078125 -15.625 8.609375 -13.40625 8.609375 -10.40625 L 8.609375 0 L 2.703125 0 L 2.703125 -22.78125 L 8.609375 -22.78125 L 8.609375 -19.09375 L 10.359375 -21.796875 C 11.847656 -22.847656 13.675781 -23.375 15.84375 -23.375 C 18.238281 -23.375 20.128906 -22.816406 21.515625 -21.703125 C 22.898438 -20.585938 23.707031 -19.019531 23.9375 -17 Z M 23.9375 -17 "/></g></g></g><g fill="#ffffff" fill-opacity="1"><g transform="translate(162.552367, 41.959667)"><g><path d="M 23.203125 -29.546875 L 23.203125 -12.109375 C 23.203125 -10.660156 23.160156 -9.304688 23.078125 -8.046875 C 22.898438 -5.367188 21.941406 -3.257812 20.203125 -1.71875 C 18.460938 -0.175781 15.910156 0.59375 12.546875 0.59375 C 9.203125 0.59375 6.664062 -0.265625 4.9375 -1.984375 C 3.21875 -3.710938 2.3125 -6.132812 2.21875 -9.25 L 2.1875 -10.75 L 8.09375 -10.75 L 8.171875 -9.25 C 8.378906 -5.625 9.953125 -3.8125 12.890625 -3.8125 C 15.515625 -3.8125 16.96875 -5.335938 17.25 -8.390625 C 17.28125 -9.015625 17.296875 -10.054688 17.296875 -11.515625 L 17.296875 -29.546875 Z M 23.203125 -29.546875 "/></g></g></g><g fill="#ffffff" fill-opacity="1"><g transform="translate(188.067135, 41.959667)"><g><path d="M 23.71875 -22.78125 L 23.71875 0 L 17.8125 0 L 17.8125 -3.859375 L 16.0625 -0.9375 C 14.519531 0.0820312 12.691406 0.59375 10.578125 0.59375 C 8.316406 0.59375 6.476562 0.046875 5.0625 -1.046875 C 3.65625 -2.148438 2.8125 -3.53125 2.53125 -5.1875 C 2.382812 -6.15625 2.3125 -7.535156 2.3125 -9.328125 L 2.3125 -22.78125 L 8.21875 -22.78125 L 8.21875 -10.578125 C 8.21875 -9.515625 8.273438 -8.472656 8.390625 -7.453125 C 8.703125 -4.878906 10.171875 -3.59375 12.796875 -3.59375 C 14.335938 -3.59375 15.554688 -4.234375 16.453125 -5.515625 C 17.359375 -6.804688 17.8125 -8.691406 17.8125 -11.171875 L 17.8125 -22.78125 Z M 23.71875 -22.78125 "/></g></g></g><g fill="#ffffff" fill-opacity="1"><g transform="translate(214.523721, 41.959667)"><g><path d="M 10.828125 -23.375 C 13.453125 -23.375 15.550781 -22.71875 17.125 -21.40625 C 18.695312 -20.09375 19.609375 -18.351562 19.859375 -16.1875 L 13.953125 -16.1875 C 13.554688 -18.382812 12.390625 -19.484375 10.453125 -19.484375 C 9.585938 -19.484375 8.921875 -19.257812 8.453125 -18.8125 C 7.984375 -18.375 7.75 -17.785156 7.75 -17.046875 C 7.75 -16.179688 8.132812 -15.492188 8.90625 -14.984375 C 9.675781 -14.472656 11.015625 -13.972656 12.921875 -13.484375 C 15.410156 -12.859375 17.269531 -11.988281 18.5 -10.875 C 19.726562 -9.757812 20.34375 -8.203125 20.34375 -6.203125 C 20.34375 -4.003906 19.460938 -2.320312 17.703125 -1.15625 C 15.941406 0.0078125 13.691406 0.59375 10.953125 0.59375 C 8.097656 0.59375 5.785156 -0.03125 4.015625 -1.28125 C 2.253906 -2.539062 1.21875 -4.425781 0.90625 -6.9375 L 6.8125 -6.9375 C 7.039062 -5.738281 7.53125 -4.832031 8.28125 -4.21875 C 9.039062 -3.601562 9.960938 -3.296875 11.046875 -3.296875 C 12.046875 -3.296875 12.851562 -3.507812 13.46875 -3.9375 C 14.082031 -4.363281 14.390625 -4.976562 14.390625 -5.78125 C 14.390625 -6.664062 13.972656 -7.382812 13.140625 -7.9375 C 12.316406 -8.5 10.921875 -9.019531 8.953125 -9.5 C 6.640625 -10.070312 4.867188 -10.894531 3.640625 -11.96875 C 2.410156 -13.039062 1.796875 -14.503906 1.796875 -16.359375 C 1.796875 -18.523438 2.613281 -20.234375 4.25 -21.484375 C 5.894531 -22.742188 8.085938 -23.375 10.828125 -23.375 Z M 10.828125 -23.375 "/></g></g></g><g fill="#ffffff" fill-opacity="1"><g transform="translate(235.800295, 41.959667)"><g><path d="M 9.765625 -18.703125 L 9.765625 -8.171875 C 9.765625 -7.234375 9.773438 -6.566406 9.796875 -6.171875 C 9.890625 -5.054688 10.21875 -4.332031 10.78125 -4 C 11.351562 -3.675781 12.453125 -3.570312 14.078125 -3.6875 L 14.078125 0.171875 C 12.859375 0.367188 11.5625 0.46875 10.1875 0.46875 C 8.019531 0.46875 6.472656 0.101562 5.546875 -0.625 C 4.617188 -1.351562 4.082031 -2.546875 3.9375 -4.203125 C 3.882812 -4.878906 3.859375 -5.976562 3.859375 -7.5 L 3.859375 -18.703125 L 0.515625 -18.703125 L 0.515625 -22.609375 L 3.859375 -22.609375 L 3.859375 -28.21875 L 9.765625 -28.21875 L 9.765625 -22.609375 L 14.46875 -22.609375 L 14.46875 -18.703125 Z M 9.765625 -18.703125 "/></g></g></g></svg>